<svg width="32" height="32" fill="none" xmlns="http://www.w3.org/2000/svg"><path d="M21.7 18.826l-4.462-3.346V8.663a1.238 1.238 0 10-2.478 0V16.1c0 .39.183.759.495.992l4.958 3.718c.223.167.483.248.742.248.378 0 .75-.17.993-.497.412-.547.3-1.324-.248-1.734z" fill="#fff"/><path d="M16 0C7.177 0 0 7.177 0 16s7.177 16 16 16 16-7.177 16-16S24.823 0 16 0zm0 29.521C8.545 29.521 2.479 23.455 2.479 16 2.479 8.545 8.545 2.479 16 2.479c7.456 0 13.521 6.066 13.521 13.521 0 7.455-6.066 13.521-13.521 13.521z" fill="#fff"/></svg>