<svg width="16" height="16" fill="none" xmlns="http://www.w3.org/2000/svg"><rect width="16" height="16" rx="3" fill="#E9E6DC"/><g clip-path="url(#clip0)" fill="#444"><path d="M4.511 13h6.978c.732 0 1.326-.594 1.326-1.326V5.067c0-.732-.594-1.326-1.326-1.326h-.526v-.37a.371.371 0 00-.37-.371.371.371 0 00-.37.37v.37H5.778v-.37a.371.371 0 00-.37-.37.371.371 0 00-.37.37v.37H4.51c-.731 0-1.325.595-1.325 1.327v6.607c0 .732.594 1.326 1.325 1.326zm-.585-7.933c0-.323.263-.586.585-.586h.526v.37a.371.371 0 00.741.001v-.37h4.445v.37a.37.37 0 00.74 0v-.37h.526c.322 0 .585.262.585.585v6.607a.586.586 0 01-.585.585H4.511a.586.586 0 01-.585-.585V5.067z"/><path d="M5.871 7.259a.463.463 0 100-.926.463.463 0 000 .926zm2.037 0a.463.463 0 100-.926.463.463 0 000 .926zm2.037 0a.463.463 0 100-.926.463.463 0 000 .926zM5.871 9.111a.463.463 0 100-.925.463.463 0 000 .925zm2.037 0a.463.463 0 100-.925.463.463 0 000 .925zm2.037 0a.463.463 0 100-.925.463.463 0 000 .925zm-4.074 1.852a.463.463 0 100-.926.463.463 0 000 .926zm2.037 0a.463.463 0 100-.926.463.463 0 000 .926zm2.037 0a.463.463 0 100-.926.463.463 0 000 .926z"/></g><defs><clipPath id="clip0"><path fill="#fff" transform="translate(3 3)" d="M0 0h10v10H0z"/></clipPath></defs></svg>