<svg width="22" height="22" fill="none" xmlns="http://www.w3.org/2000/svg"><path d="M8.727 11.923H6.588c-.345 0-.453-.13-.453-.453V8.856c0-.346.13-.454.453-.454h2.139v-1.9c0-.864.151-1.685.583-2.441.454-.778 1.102-1.296 1.922-1.599.54-.194 1.08-.28 1.664-.28h2.116c.303 0 .432.13.432.432v2.462c0 .302-.13.432-.432.432-.583 0-1.166 0-1.75.022-.582 0-.885.28-.885.885-.021.648 0 1.275 0 1.944h2.506c.345 0 .475.13.475.475v2.614c0 .346-.108.454-.475.454h-2.506v7.041c0 .367-.108.497-.497.497h-2.7c-.324 0-.453-.13-.453-.454v-7.063z" fill="#3B5998"/></svg>