<svg width="20" height="20" fill="none" xmlns="http://www.w3.org/2000/svg"><g clip-path="url(#clip0)" fill="#DF0096"><path d="M14.402 0h-9.6c-2.64 0-4.8 2.16-4.8 4.8v9.6c0 2.64 2.16 4.8 4.8 4.8h9.6c2.64 0 4.8-2.16 4.8-4.8V4.8c0-2.64-2.16-4.8-4.8-4.8zm3.2 14.4c0 1.764-1.436 3.2-3.2 3.2h-9.6a3.204 3.204 0 01-3.2-3.2V4.8c0-1.765 1.436-3.2 3.2-3.2h9.6c1.764 0 3.2 1.435 3.2 3.2v9.6z"/><path d="M14.802 5.6a1.2 1.2 0 100-2.4 1.2 1.2 0 000 2.4zM9.6 4.8a4.8 4.8 0 100 9.601 4.8 4.8 0 000-9.6zm0 8.001a3.2 3.2 0 11.001-6.4 3.2 3.2 0 010 6.4z"/></g><defs><clipPath id="clip0"><path fill="#fff" d="M0 0h19.2v19.2H0z"/></clipPath></defs></svg>