<svg width="22" height="27" fill="none" xmlns="http://www.w3.org/2000/svg"><g filter="url(#filter0_d)"><path d="M7.823 18.237a.888.888 0 01-.535-.165.953.953 0 01-.345-.46 1 1 0 01-.026-.582.964.964 0 01.303-.49l5.609-5.024-5.61-5.022a.945.945 0 01-.25-.292.989.989 0 01.098-1.105.923.923 0 01.297-.238.885.885 0 011.046.184l6.422 5.745c.101.09.182.201.237.327a.995.995 0 01-.237 1.13l-6.422 5.75a.895.895 0 01-.587.242z" fill="#3F6745"/></g><defs><filter id="filter0_d" x="-4" y="0" width="30" height="31" filterUnits="userSpaceOnUse" color-interpolation-filters="sRGB"><feFlood flood-opacity="0" result="BackgroundImageFix"/><feColorMatrix in="SourceAlpha" values="0 0 0 0 0 0 0 0 0 0 0 0 0 0 0 0 0 0 127 0" result="hardAlpha"/><feOffset dy="4"/><feGaussianBlur stdDeviation="2"/><feComposite in2="hardAlpha" operator="out"/><feColorMatrix values="0 0 0 0 0 0 0 0 0 0 0 0 0 0 0 0 0 0 0.25 0"/><feBlend in2="BackgroundImageFix" result="effect1_dropShadow"/><feBlend in="SourceGraphic" in2="effect1_dropShadow" result="shape"/></filter></defs></svg>