<svg width="11" height="11" fill="none" xmlns="http://www.w3.org/2000/svg"><path d="M5.5 0a3.872 3.872 0 00-3.29 5.9l3.07 4.948a.322.322 0 00.274.152h.002c.113 0 .216-.06.274-.157l2.992-4.995A3.872 3.872 0 005.5 0zm2.769 5.518l-2.72 4.54-2.791-4.497a3.219 3.219 0 01-.485-1.694A3.234 3.234 0 015.5.64a3.232 3.232 0 013.225 3.227 3.22 3.22 0 01-.456 1.65z" fill="#3A3A3A"/><path d="M5.5 1.934a1.936 1.936 0 00-1.934 1.933c0 1.06.854 1.934 1.934 1.934a1.93 1.93 0 001.934-1.934A1.936 1.936 0 005.5 1.934zm0 3.227a1.294 1.294 0 010-2.587c.71 0 1.291.582 1.291 1.293 0 .702-.565 1.294-1.291 1.294z" fill="#3A3A3A"/></svg>