<svg width="11" height="11" fill="none" xmlns="http://www.w3.org/2000/svg"><g clip-path="url(#clip0)"><path d="M2.242 7.312a11.67 11.67 0 003.882 3.04c.567.27 1.326.589 2.172.643.052.003.103.005.155.005.568 0 1.023-.196 1.395-.6a.047.047 0 00.01-.01c.131-.16.282-.304.439-.457.107-.102.216-.21.321-.319.486-.506.486-1.149-.004-1.639l-1.37-1.37c-.233-.241-.51-.369-.802-.369-.292 0-.572.128-.812.367l-.816.816a4.477 4.477 0 00-.225-.118 2.815 2.815 0 01-.251-.137c-.743-.472-1.418-1.087-2.063-1.878-.326-.413-.545-.76-.697-1.113.214-.193.414-.396.608-.594l.21-.212c.246-.247.378-.532.378-.821 0-.29-.13-.574-.378-.82l-.68-.68L3.483.81A12.51 12.51 0 003.02.351C2.785.121 2.51 0 2.217 0c-.29 0-.567.12-.811.353l-.853.853c-.31.31-.485.686-.522 1.121-.043.545.057 1.124.317 1.824.399 1.082 1 2.088 1.894 3.161zM.587 2.375A1.21 1.21 0 01.95 1.6l.848-.848a.614.614 0 01.42-.194c.138 0 .28.067.41.199.152.141.296.29.45.446l.238.242.679.68c.141.14.214.284.214.426 0 .14-.073.284-.214.426l-.212.214c-.212.214-.41.417-.63.61l-.01.012c-.19.19-.16.37-.114.506l.006.019c.176.421.42.822.8 1.301.684.843 1.404 1.498 2.198 2.001.098.064.203.114.3.164.092.046.176.09.251.137l.025.014a.476.476 0 00.221.057.483.483 0 00.34-.155l.853-.853c.132-.132.275-.203.417-.203.173 0 .314.108.403.203l1.374 1.373c.274.273.272.57-.006.859-.096.102-.196.2-.303.303-.16.155-.326.315-.477.495-.262.282-.574.414-.978.414-.038 0-.08-.002-.118-.004-.748-.048-1.443-.34-1.965-.588A11.086 11.086 0 012.675 6.96c-.85-1.023-1.422-1.976-1.8-2.997C.64 3.337.55 2.834.587 2.375z" fill="#3A3A3A"/></g><defs><clipPath id="clip0"><path fill="#fff" d="M0 0h11v11H0z"/></clipPath></defs></svg>