<svg width="35" height="35" fill="none" xmlns="http://www.w3.org/2000/svg"><path d="M30.625 16.406h-7.656c-2.4 0-4.375 1.976-4.375 4.375 0 2.4 1.975 4.375 4.375 4.375h4.375v3.282c0 .6-.494 1.093-1.094 1.093H8.75c-1.8 0-3.281-1.48-3.281-3.281V9.844c0-1.8 1.48-3.281 3.281-3.281h2.188c.6 0 1.093-.494 1.093-1.094 0-.6-.493-1.094-1.094-1.094H8.75c-3 0-5.469 2.469-5.469 5.469V26.25c0 3 2.469 5.469 5.469 5.469h17.5c1.8 0 3.281-1.481 3.281-3.282v-3.28h1.094a1.1 1.1 0 001.094-1.095V17.5a1.1 1.1 0 00-1.094-1.094zm-1.094 6.563H22.97c-1.2 0-2.188-.988-2.188-2.188 0-1.2.988-2.187 2.188-2.187h6.562v4.375z" fill="#fff"/><path d="M8.356 8.826c-1.22.533-.817 2.111.394 2.111h17.5a1.1 1.1 0 011.094 1.094v1.094c0 .6.493 1.094 1.093 1.094s1.094-.494 1.094-1.094V12.03a3.282 3.282 0 00-3.281-3.28h-.35l-1.914-4.78a1.1 1.1 0 00-1.411-.612L8.356 8.826zm15.181-.076h-8.892l7.711-2.964 1.181 2.964z" fill="#fff"/></svg>