<svg width="110" height="110" fill="none" xmlns="http://www.w3.org/2000/svg"><path d="M0 11.05C0 5.134 5.108.51 10.995 1.1l90 9A10 10 0 01110 20.05V100c0 5.523-4.477 10-10 10H10c-5.523 0-10-4.477-10-10V11.05z" fill="#E9E6DC"/><path d="M44.305 52.42l-10.29 5.614a16.373 16.373 0 002.241 3.333l8.362-8.361a4.657 4.657 0 01-.313-.586zm-11.203-7.002a16.162 16.162 0 000 10.446l9.576-5.223-9.576-5.223zm11.516 2.856l-8.362-8.36a16.345 16.345 0 00-2.24 3.332l10.289 5.614a4.65 4.65 0 01.313-.586zm1.657 6.39l-8.36 8.361a16.367 16.367 0 003.332 2.241l5.614-10.289a4.655 4.655 0 01-.586-.313zM43.418 66.18a16.163 16.163 0 0010.446 0l-5.223-9.577-5.223 9.577zm7.588-19.562l8.361-8.362a16.373 16.373 0 00-3.333-2.24L50.42 46.305c.202.09.398.194.586.313zm-4.145-.313l-5.614-10.29a16.37 16.37 0 00-3.333 2.241l8.361 8.362c.188-.119.384-.223.586-.313z" fill="#2A2A2A"/><path d="M69.734 62.36h18.75a2.344 2.344 0 00-2.343-2.344H72.078a2.344 2.344 0 00-2.344 2.343z" fill="#3F6745"/><path d="M53.864 35.102a16.162 16.162 0 00-10.446 0l5.223 9.576 5.223-9.576zM48.64 52.984a2.344 2.344 0 100-4.687 2.344 2.344 0 000 4.687zm1.78 1.993l5.614 10.289a16.387 16.387 0 003.333-2.24l-8.361-8.362a4.657 4.657 0 01-.586.313zm2.244-1.971l8.361 8.362a16.502 16.502 0 001.993-2.842L52.94 52.482a4.67 4.67 0 01-.276.524z" fill="#2A2A2A"/><path d="M69.734 85.797h18.75V64.703h-18.75v21.094zM79.11 69.39a5.82 5.82 0 013.164.937l1.707-2.73 1.992 1.242-1.978 3.164a5.86 5.86 0 11-4.885-2.613z" fill="#3F6745"/><path d="M75.86 57.672c.494-1.917.784-3.881.865-5.86h-4.647V49.47h4.658a28.02 28.02 0 00-7.408-17.859l-3.453 3.453-1.657-1.657 3.453-3.453a28.02 28.02 0 00-17.859-7.408v4.658H47.47v-4.658a28.02 28.02 0 00-17.859 7.408l3.453 3.453-1.657 1.657-3.453-3.453a28.02 28.02 0 00-7.408 17.859h4.658v2.343h-4.658a28.02 28.02 0 007.408 17.859l3.453-3.453 1.657 1.657-3.453 3.453a28.02 28.02 0 0017.859 7.408v-4.658h2.343v4.632a27.983 27.983 0 0017.579-7.13v-.532l-3.173-3.173 1.657-1.657 1.516 1.516V62.36a4.688 4.688 0 014.687-4.687h3.783zM48.64 69.39a18.75 18.75 0 1118.75-18.75 18.773 18.773 0 01-18.75 18.75z" fill="#2A2A2A"/><path d="M72.078 90.484h14.063a2.344 2.344 0 002.343-2.343h-18.75a2.344 2.344 0 002.344 2.343z" fill="#3F6745"/><path d="M52.664 48.274c.117.188.22.384.31.586l10.292-5.614a16.37 16.37 0 00-2.24-3.333l-8.362 8.361zm11.329 8.102a16.14 16.14 0 00.187-10.958l-9.664 5.273 9.477 5.685z" fill="#2A2A2A"/><path d="M77.741 73.428l-1.95 1.3 2.344 3.516a1.171 1.171 0 00.975.522h.017a1.171 1.171 0 00.977-.551l3.88-6.211a5.891 5.891 0 00-1.71-1.676l-3.191 5.106-1.342-2.006z" fill="#3F6745"/></svg>