<svg width="110" height="110" fill="none" xmlns="http://www.w3.org/2000/svg"><path d="M0 11.05C0 5.134 5.108.51 10.995 1.1l90 9A10 10 0 01110 20.05V100c0 5.523-4.477 10-10 10H10c-5.523 0-10-4.477-10-10V11.05z" fill="#E9E6DC"/><path d="M61.009 52.831a3.673 3.673 0 00-3.67 3.669 3.673 3.673 0 003.67 3.669 3.673 3.673 0 003.668-3.67 3.673 3.673 0 00-3.668-3.668zm2.429-11.121v6.616a8.559 8.559 0 014.59 3.338l6.292-2.045c-2.14-4.124-6.14-7.133-10.882-7.909zm12.387 12.53l-6.294 2.045c.001.072.005.143.005.215a8.484 8.484 0 01-1.76 5.181l3.886 5.349a14.939 14.939 0 004.333-10.53c0-.768-.058-1.523-.17-2.26z" fill="#2A2A2A"/><path d="M61.008 24.509H31.446a2.43 2.43 0 100 4.86h12.63a32.229 32.229 0 00-7.13 6.073H20.43a2.43 2.43 0 000 4.86h13A31.795 31.795 0 0029.016 56.5a31.82 31.82 0 005.883 18.468h-6.895a2.43 2.43 0 000 4.86H39.14a32.197 32.197 0 004.937 3.804H20.68a2.43 2.43 0 000 4.86h40.327C78.648 88.493 93 74.14 93 56.5S78.648 24.509 61.008 24.509zM72.81 72.447a2.499 2.499 0 01-.303.221 19.74 19.74 0 01-11.5 3.68 19.74 19.74 0 01-11.5-3.68 2.473 2.473 0 01-.166-.11c-.048-.035-.093-.073-.137-.11-4.878-3.62-8.045-9.42-8.045-15.947 0-10.944 8.904-19.848 19.848-19.848 10.944 0 19.848 8.904 19.848 19.848 0 6.527-3.167 12.327-8.045 15.946z" fill="#3F6745"/><path d="M47.695 49.62l6.293 2.044a8.56 8.56 0 014.59-3.338V41.71c-4.742.776-8.742 3.785-10.883 7.91zm16.153 14.922a8.488 8.488 0 01-5.678 0l-3.887 5.35a14.896 14.896 0 006.726 1.596c2.417 0 4.702-.575 6.726-1.596l-3.887-5.35zM52.479 56.5c0-.072.003-.143.005-.215L46.19 54.24c-.112.737-.17 1.492-.17 2.26 0 4.1 1.655 7.821 4.333 10.53l3.886-5.349a8.484 8.484 0 01-1.76-5.181z" fill="#2A2A2A"/></svg>