<svg width="110" height="110" fill="none" xmlns="http://www.w3.org/2000/svg"><path d="M0 11.05C0 5.134 5.108.51 10.995 1.1l90 9A10 10 0 01110 20.05V100c0 5.523-4.477 10-10 10H10c-5.523 0-10-4.477-10-10V11.05z" fill="#E9E6DC"/><path d="M77.497 61.315c-.15 0-.3 0-.451.017a6.328 6.328 0 00.78 12.622h.12a6.328 6.328 0 00-.447-12.639h-.002zm-1.184 7.68l-.176-2.525 2.525-.177.174 2.525-2.523.177z" fill="#2A2A2A"/><path d="M83.737 48.177l-23.989 1.677 1.237 17.675 7.674-.536a8.847 8.847 0 0117.475-1.223l3.886-.272a1.267 1.267 0 001.176-1.35l-.088-1.266-3.787.264-.176-2.525 3.787-.264-.176-2.525-5.051.352c-.06 0-.12.006-.18.006a2.532 2.532 0 01-2.522-2.355l-.179-2.52a2.53 2.53 0 012.348-2.702l3.764-.263a6.269 6.269 0 00-5.2-2.173zm-21.11 6.55l-.177-2.53 5.05-.353.176 2.532-5.05.352z" fill="#2A2A2A"/><path d="M90.58 55.31l-.09-1.266a6.285 6.285 0 00-.215-1.253l-4.922.344.178 2.525 5.048-.35zM58.867 37.227l.706 10.101 16.484-1.153-7.922-9.596-9.268.648zm-30.58 12.289l28.759-2.011-.706-10.1-26.74 1.87-1.313 10.241z" fill="#2A2A2A"/><path d="M34.572 64.316c-.149 0-.298 0-.449.016a6.328 6.328 0 00-5.873 6.75 6.13 6.13 0 00.52 2.113 1.278 1.278 0 001.17.76h9.238a1.296 1.296 0 001.184-.79 6.328 6.328 0 00-5.793-8.849h.003zm-1.187 7.681l-.174-2.53 2.523-.177.176 2.525-2.525.183z" fill="#3F6745"/><path d="M62.227 31.918L30.64 34.127a6.328 6.328 0 00-5.517 4.187l-4.336 12.15a18.9 18.9 0 00-1.056 7.702l.506 7.137 3.786-.264.177 2.525-3.787.264.089 1.266a1.23 1.23 0 001.35 1.173l3.888-.272a8.849 8.849 0 0117.471-1.223l15.248-1.067-1.236-17.672-28.76 2.009h-.179a2.533 2.533 0 01-2.508-2.853l1.314-10.241a2.531 2.531 0 012.333-2.204l36.733-2.568-.737-.886a3.823 3.823 0 00-3.192-1.372zM34.674 54.144l.178 2.531-5.05.355-.176-2.532 5.048-.354zM18.531 73.953H94.47v2.531H18.53v-2.53zm15.188 6.328h2.531v5.063h-2.531V80.28zm5.174-.721l2.263-1.13 2.53 5.059-2.264 1.132-2.53-5.06zm-12.664 3.943l2.53-5.06 2.262 1.132-2.53 5.06-2.262-1.132z" fill="#2A2A2A"/></svg>